<svg width="45" height="57" viewBox="0 0 45 57" fill="none" xmlns="http://www.w3.org/2000/svg">
<path d="M7.4576 18.6071L7.49752 18.4379L7.45777 18.2686L5.85119 11.4257L11.7997 7.73768L11.9458 7.64706L12.037 7.50123L15.7562 1.55048L22.5686 3.15689L22.7394 3.19717L22.9101 3.15635L29.7499 1.52074L33.4371 7.49757L33.5286 7.64586L33.6767 7.73768L39.6252 11.4257L38.0186 18.2686L37.9789 18.4379L38.0188 18.6071L39.6245 25.4163L33.6461 29.1044L33.4959 29.1971L33.4037 29.3477L29.7468 35.3238L22.9071 33.7179L22.7382 33.6783L22.5693 33.7179L15.7296 35.3238L12.0727 29.3477L11.9805 29.1971L11.8303 29.1044L5.85194 25.4163L7.4576 18.6071ZM30.7353 39.5744L31.2687 39.695L31.5399 39.2202L34.9926 33.1781L43.5478 48.2264H36.8182H36.4125L36.1946 48.5687L32.462 54.4342L25.5001 38.3915L30.7353 39.5744ZM1.9286 48.2264L10.3468 33.4181L13.7081 39.4684L13.9806 39.959L14.5263 39.8283L19.9037 38.5408L13.014 54.4336L9.28178 48.5687L9.06394 48.2264H8.6582H1.9286ZM13.1966 28.1391C15.7357 30.6782 19.1794 32.1046 22.7702 32.1046C30.2208 32.1046 36.2773 26.0433 36.2773 18.5335C36.2773 11.0853 30.2184 5.02636 22.7702 5.02636C19.1794 5.02636 15.7357 6.4528 13.1966 8.99188C10.6575 11.531 9.23107 14.9747 9.23107 18.5655C9.23107 22.1563 10.6575 25.6 13.1966 28.1391ZM22.7062 27.4264C17.8056 27.4264 13.8773 23.4725 13.8773 18.5655C13.8773 13.6889 17.8072 9.70462 22.7062 9.70462C27.6116 9.70462 31.5991 13.6953 31.5991 18.5655C31.5991 23.4661 27.6132 27.4264 22.7062 27.4264Z" stroke="#FAFAFA" stroke-width="1.47826"/>
</svg>
