<svg width="65" height="65" viewBox="0 0 65 65" fill="none" xmlns="http://www.w3.org/2000/svg">
<path d="M22.1089 35.6243C17.4055 35.6243 12.9718 33.7805 9.6244 30.4335C6.27704 27.0859 4.43359 22.6524 4.43359 17.9486V0.956715H12.2781C13.1083 0.956715 13.7814 1.62971 13.7814 2.46042C13.7814 3.29062 13.1083 3.96362 12.2781 3.96362H7.4402V17.9486C7.4402 26.0374 14.0205 32.6174 22.1088 32.6174C30.1971 32.6174 36.7775 26.0374 36.7775 17.9486V3.96362H31.9395C31.1093 3.96362 30.4362 3.29062 30.4362 2.46042C30.4362 1.62971 31.1093 0.956715 31.9395 0.956715H39.7839V17.9486C39.7839 22.6524 37.9406 27.0859 34.5931 30.4335C31.2459 33.7805 26.8122 35.6243 22.1089 35.6243Z" fill="#FAFAFA"/>
<path d="M38.2807 64.9565C33.5774 64.9565 29.1436 63.1127 25.7963 59.7657C22.4489 56.4182 20.6055 51.9847 20.6055 47.2814V34.0973H23.6121V47.2814C23.6121 55.3697 30.1924 61.9496 38.2807 61.9496C46.369 61.9496 52.9494 55.3697 52.9494 47.2814V31.7927H55.9558V47.2814C55.9558 51.9847 54.1125 56.4182 50.765 59.7657C47.418 63.1127 42.984 64.9565 38.2807 64.9565Z" fill="#FAFAFA"/>
<path d="M54.4507 24.084C52.6423 24.084 51.171 25.5554 51.171 27.3643C51.171 29.1726 52.6423 30.644 54.4507 30.644C56.259 30.644 57.7309 29.1726 57.7309 27.3643C57.7309 25.5554 56.259 24.084 54.4507 24.084ZM54.4507 33.6509C50.9845 33.6509 48.1641 30.8305 48.1641 27.3643C48.1641 23.8976 50.9845 21.0777 54.4507 21.0777C57.9169 21.0777 60.7373 23.8976 60.7373 27.3643C60.7373 30.8305 57.9169 33.6509 54.4507 33.6509Z" fill="#FAFAFA"/>
</svg>
