<svg width="49" height="49" viewBox="0 0 49 49" fill="none" xmlns="http://www.w3.org/2000/svg">
<path fill-rule="evenodd" clip-rule="evenodd" d="M24.6754 27.362H24.782C32.146 27.362 38.1154 21.3926 38.1154 14.0286C38.1154 6.66465 32.146 0.695312 24.782 0.695312H24.6754C17.3607 0.752646 11.4487 6.70065 11.4487 14.0286C11.4487 21.3566 17.3607 27.3046 24.6754 27.362ZM35.3661 15.362H32.6994C32.6274 16.5793 32.4567 17.7486 32.2007 18.8486H34.2994C34.8538 17.7568 35.2147 16.5771 35.3661 15.362ZM32.3794 21.5153H31.3594C31.1634 21.9993 30.9461 22.4593 30.7141 22.8953C31.3147 22.4927 31.8731 22.0303 32.3807 21.5153H32.3794ZM29.4501 18.8486C29.7407 17.786 29.9434 16.614 30.0274 15.362H26.1154V18.8486H29.4501ZM26.1154 21.5153H28.4274C28.3247 21.7126 28.2194 21.902 28.1101 22.0846C27.4434 23.1926 26.754 23.878 26.1154 24.266V21.5153ZM23.4487 18.8486V15.362H19.4514C19.5354 16.614 19.738 17.786 20.0287 18.8486H23.4487ZM21.0514 21.5153H23.4487V24.3153C22.7874 23.938 22.0647 23.2433 21.3687 22.0846C21.2571 21.8982 21.1513 21.7083 21.0514 21.5153ZM17.278 18.8486C17.0141 17.7025 16.8473 16.5362 16.7794 15.362H14.198C14.3527 16.602 14.7207 17.778 15.2647 18.8486H17.278ZM17.1847 21.5153H18.118C18.302 21.966 18.502 22.3953 18.7167 22.8033C18.1666 22.4227 17.6546 21.9915 17.1847 21.5153ZM32.6994 12.6953C32.6316 11.5211 32.4648 10.3548 32.2007 9.20865H34.2994C34.8542 10.3003 35.2151 11.4801 35.3661 12.6953H32.6994ZM32.3794 6.54198H31.3594C31.1634 6.05798 30.9461 5.59798 30.7141 5.16198C31.3154 5.56598 31.8741 6.02865 32.3807 6.54198H32.3794ZM26.1154 6.54198H28.4274C28.3275 6.34897 28.2217 6.1591 28.1101 5.97265C27.4434 4.86331 26.754 4.17931 26.1154 3.79131V6.54198ZM29.4501 9.20865H26.1154V12.6953H30.0274C29.951 11.5168 29.7576 10.3489 29.4501 9.20865ZM23.4487 3.74198V6.54198H21.0514C21.154 6.34465 21.2607 6.15531 21.3687 5.97265C22.0634 4.81398 22.7874 4.12065 23.4487 3.74198ZM23.4487 9.20865H20.0287C19.738 10.2713 19.5354 11.4433 19.4514 12.6953H23.4487V9.20865ZM18.7154 5.25398C18.5021 5.66198 18.302 6.09131 18.1194 6.54198H17.1847C17.6527 6.06598 18.1647 5.63531 18.7154 5.25398ZM17.278 9.20865H15.2647C14.7103 10.3005 14.3494 11.4802 14.198 12.6953H16.7794C16.8514 11.4766 17.022 10.3086 17.278 9.20865ZM4.37938 15.362C2.99538 15.33 1.60605 16.1793 1.15672 17.502C1.04472 17.8326 0.983382 18.2646 0.939382 18.658C0.892715 19.0873 0.856715 19.6033 0.828715 20.1646C0.770922 21.4501 0.741137 22.7366 0.739382 24.0233C0.728715 26.714 0.796715 29.514 0.894049 30.382C1.06472 31.902 1.93938 33.318 2.69938 34.55L2.78472 34.6873C3.01538 35.0606 3.24338 35.4326 3.46738 35.8153C4.47271 37.5366 5.56605 38.6966 6.55672 39.7486L6.57938 39.7713C7.13672 40.362 7.65272 40.9113 8.13938 41.5233C7.66726 42.0189 7.40457 42.6775 7.40605 43.362V46.0286C7.40605 46.7359 7.687 47.4142 8.1871 47.9143C8.68719 48.4144 9.36547 48.6953 10.0727 48.6953H20.7394C21.4466 48.6953 22.1249 48.4144 22.625 47.9143C23.1251 47.4142 23.406 46.7359 23.406 46.0286V43.362C23.406 42.6871 23.1501 42.0373 22.6898 41.5436C22.2296 41.05 21.5993 40.7492 20.926 40.702C20.746 39.1873 20.5127 37.142 20.4914 36.5593C20.4727 36.058 20.3047 35.5686 20.1474 35.1966C19.9823 34.8132 19.7925 34.4409 19.5794 34.082C19.3602 33.7091 19.1254 33.3456 18.8754 32.9926L18.8234 32.9206L18.81 32.9006L18.8047 32.894L18.8021 32.89L18.7887 32.8713L14.4634 27.418L14.4234 27.378V27.3753L14.4181 27.37L14.3861 27.3353C14.1872 27.1153 13.996 26.8885 13.8127 26.6553C13.4047 26.1457 13.0491 25.5963 12.7514 25.0153C12.4474 24.3913 11.8714 23.7926 10.9874 23.7486C10.234 23.7086 9.64338 24.1086 9.29938 24.4166C9.10993 24.5874 8.93715 24.7758 8.78338 24.9793L8.72338 24.1766L8.71671 24.0886C8.58605 22.3313 8.42738 20.2046 7.91138 18.502C7.30605 16.51 5.96072 15.4006 4.37805 15.3633L4.37938 15.362ZM18.2394 40.6953C18.066 39.2286 17.85 37.3126 17.826 36.6566C17.8212 36.6173 17.8127 36.5784 17.8007 36.5406C17.7703 36.4349 17.7334 36.3311 17.69 36.23C17.5698 35.9548 17.4322 35.6876 17.278 35.43C17.0983 35.1242 16.9057 34.8261 16.7007 34.5366L16.666 34.4873L12.442 29.162L12.418 29.1353C12.1742 28.8653 11.9399 28.5869 11.7154 28.3006C11.3561 27.8452 11.0261 27.3673 10.7274 26.87L10.718 26.8846C10.598 27.1073 10.5314 27.3113 10.5114 27.4446C10.438 27.9166 10.4754 28.242 10.5127 28.418C10.524 28.4742 10.5396 28.5295 10.5594 28.5833V28.5873L13.002 33.438L10.734 34.8233L10.7007 34.778L10.6087 34.6513C10.1327 33.9948 9.6616 33.3348 9.19538 32.6713C8.38605 31.5193 7.41805 30.106 6.94072 29.258C6.58338 28.6246 6.41805 27.786 6.31272 27.0273C6.20406 26.1553 6.1218 25.2803 6.06605 24.4033L6.06338 24.374C5.92472 22.51 5.78072 20.6673 5.35938 19.2766C5.17538 18.67 4.93805 18.3646 4.76738 18.2166C4.64473 18.1019 4.48459 18.0356 4.31671 18.03C3.95271 18.0206 3.71138 18.2726 3.68072 18.3633C3.67805 18.3713 3.66605 18.4166 3.64872 18.5153C3.62465 18.6582 3.60508 18.8018 3.59005 18.946C3.55138 19.3033 3.51805 19.762 3.49138 20.298C3.43633 21.5426 3.40833 22.7882 3.40738 24.034C3.39538 26.7526 3.46871 29.3966 3.54605 30.0846C3.64205 30.9446 4.17805 31.8633 5.05538 33.2873L5.05938 33.294C5.28605 33.662 5.53005 34.058 5.77138 34.4713C6.61538 35.9166 7.52472 36.886 8.52072 37.942L8.54338 37.966C9.28471 38.7526 10.09 39.606 10.85 40.6953H18.2394ZM11.1394 26.3566C11.1394 26.3566 11.134 26.358 11.1247 26.366C11.13 26.3635 11.1349 26.3603 11.1394 26.3566ZM20.7394 46.0286V43.362H10.0727V46.0286H20.7394ZM48.322 17.502C47.8714 16.1793 46.4834 15.33 45.0994 15.3633C43.518 15.4006 42.1727 16.51 41.5674 18.502C41.0514 20.2046 40.8927 22.3313 40.762 24.0886L40.7554 24.1766L40.6954 24.9793C40.5354 24.77 40.3621 24.5793 40.1794 24.4166C39.8354 24.11 39.246 23.71 38.4914 23.7473C37.6074 23.7926 37.0314 24.3913 36.7274 25.014C36.4291 25.5949 36.0731 26.1444 35.6647 26.654C35.4816 26.8877 35.2903 27.1149 35.0914 27.3353L35.0607 27.37L35.0554 27.3766L35.0154 27.418L30.6914 32.8713L30.6767 32.89L30.674 32.894L30.67 32.9006L30.6554 32.9206C30.3858 33.2956 30.1335 33.6826 29.8994 34.0806C29.6858 34.44 29.4956 34.8128 29.3301 35.1966C29.1741 35.5686 29.0061 36.058 28.9874 36.5593C28.9661 37.142 28.7341 39.1873 28.5527 40.702C27.8795 40.7492 27.2492 41.05 26.7889 41.5436C26.3287 42.0373 26.0727 42.6871 26.0727 43.362V46.0286C26.0727 46.7359 26.3537 47.4142 26.8538 47.9143C27.3539 48.4144 28.0321 48.6953 28.7394 48.6953H39.4061C40.1133 48.6953 40.7916 48.4144 41.2917 47.9143C41.7918 47.4142 42.0727 46.7359 42.0727 46.0286V43.362C42.0732 42.6771 41.8102 42.0182 41.3381 41.522C41.8261 40.9113 42.3407 40.362 42.898 39.7713L42.9207 39.7473C43.9114 38.6966 45.0047 37.5366 46.01 35.8153C46.234 35.4326 46.4634 35.062 46.6927 34.6873L46.778 34.55C47.538 33.318 48.4127 31.902 48.5834 30.382C48.6807 29.514 48.7487 26.714 48.738 24.0233C48.7367 22.7366 48.7074 21.4501 48.65 20.1646C48.6274 19.6615 48.5905 19.1591 48.5394 18.658C48.4967 18.2646 48.4354 17.8313 48.322 17.502ZM38.6301 40.6953C39.39 39.606 40.194 38.7526 40.9367 37.966L40.9581 37.942C41.9541 36.886 42.8647 35.9153 43.7074 34.4713C43.9474 34.058 44.1914 33.6633 44.4194 33.294L44.4234 33.2873C45.302 31.8633 45.8367 30.9446 45.9327 30.0846C46.01 29.3966 46.0821 26.7526 46.0714 24.034C46.066 22.6926 46.0407 21.3673 45.9874 20.298C45.9607 19.762 45.9274 19.3033 45.8887 18.946C45.8737 18.8018 45.8541 18.6582 45.83 18.5153C45.8218 18.4642 45.8112 18.4134 45.798 18.3633C45.7674 18.2726 45.5261 18.0206 45.1634 18.03C44.995 18.0352 44.8344 18.1016 44.7114 18.2166C44.5407 18.3633 44.3034 18.67 44.1194 19.2766C43.698 20.666 43.554 22.51 43.4154 24.374L43.4127 24.4033C43.3461 25.3153 43.2767 26.2353 43.166 27.0273C43.062 27.786 42.8954 28.6246 42.5394 29.2593C42.0607 30.106 41.0927 31.5193 40.2834 32.6726C39.8171 33.3357 39.346 33.9952 38.87 34.6513L38.7767 34.778L38.7447 34.8233L36.4767 33.4366L38.918 28.5873L38.9194 28.5833C38.9392 28.5295 38.9548 28.4742 38.966 28.418C39.0034 28.242 39.0407 27.9166 38.9674 27.4446C38.9294 27.248 38.8596 27.0588 38.7607 26.8846L38.7514 26.87C38.4234 27.4233 38.062 27.9193 37.7647 28.2993C37.5399 28.5861 37.3051 28.865 37.0607 29.1353L37.0354 29.162L32.8127 34.4873L32.778 34.5366C32.5731 34.8262 32.3805 35.1242 32.2007 35.43C32.0407 35.702 31.8941 35.9806 31.7887 36.23C31.7367 36.354 31.7007 36.4566 31.6781 36.5393C31.6661 36.5776 31.6576 36.6169 31.6527 36.6566C31.6287 37.3126 31.4127 39.23 31.2394 40.6953H38.6301ZM38.3394 26.3566C38.3394 26.3566 38.3447 26.358 38.354 26.366C38.3488 26.3634 38.3439 26.3603 38.3394 26.3566ZM28.7394 46.0286V43.362H39.4061V46.0286H28.7394Z" fill="#FAFAFA"/>
</svg>
